<?xml version="1.0" encoding="UTF-8"?>
<svg width="32px" height="32px" viewBox="0 0 32 32" version="1.1" xmlns="http://www.w3.org/2000/svg" xmlns:xlink="http://www.w3.org/1999/xlink">
    <!-- Generator: Sketch 64 (93537) - https://sketch.com -->
    <title>logo_terminal_assets copy 2</title>
    <desc>Created with Sketch.</desc>
    <g id="APIs" stroke="none" stroke-width="1" fill="none" fill-rule="evenodd">
        <g id="Shareable-Copy-3" transform="translate(-983.000000, -7786.000000)" fill-rule="nonzero">
            <g id="logo_terminal_assets-copy-2" transform="translate(983.000000, 7786.000000)">
                <path d="M30.204878,0 L1.79512195,0 C0.803703477,0 0,1.22043861 0,2.72592593 L0,29.2740741 C0,30.7795614 0.803703477,32 1.79512195,32 L30.204878,32 C31.1962965,32 32,30.7795614 32,29.2740741 L32,2.72592593 C32,1.22043861 31.1962965,0 30.204878,0 Z M28.4444444,3.55555556 L28.4444444,28.4444444 L3.55555556,28.4444444 L3.55555556,3.55555556 L28.4444444,3.55555556 Z" id="Rectangle" fill="#B5F6EB"></path>
                <rect id="Rectangle" fill="#00AA40" x="5.45185185" y="21.3333333" width="3.43703704" height="3.43703704" rx="1.71851852"></rect>
                <rect id="Rectangle" fill="#00AA40" x="11.2592593" y="17.8962963" width="3.43703704" height="3.43703704" rx="1.71851852"></rect>
                <rect id="Rectangle" fill="#00AA40" x="17.0666667" y="13.8666667" width="3.43703704" height="7.46666667" rx="1.71851852"></rect>
                <rect id="Rectangle" fill="#E8093A" x="22.8740741" y="16.8296296" width="3.43703704" height="6.87407407" rx="1.71851852"></rect>
            </g>
        </g>
    </g>
</svg>