<?xml version="1.0" encoding="utf-8"?>
<!-- Generator: Adobe Illustrator 23.0.4, SVG Export Plug-In . SVG Version: 6.00 Build 0)  -->
<svg version="1.1" id="bug" xmlns="http://www.w3.org/2000/svg" xmlns:xlink="http://www.w3.org/1999/xlink" x="0px" y="0px"
	 viewBox="0 0 1000 1000" style="enable-background:new 0 0 1000 1000;" xml:space="preserve">
<style type="text/css">
	.st0{fill:#1C3664;}
	.st1{fill:#8ABFD9;}
	.st2{fill:#F26724;}
</style>
<g id="bottom-dots">
	<path id="rnd1" class="st0" d="M875.4,654.3c-0.2-48.5-39.7-87.7-88.3-87.5c-22.5,0.1-43,8.7-58.5,22.7
		c-28.7,26-36.4,51.3-84.3,51.5c-34.4,0.2-48.1-11.5-65.6-33.4c-15.6-23.6-42.3-39.2-72.6-39.5l-0.6,0H505h-0.2h-0.2l-0.4,0l-0.7,0
		c-25.6,0.4-48.5,11.7-64.3,29.5c-23.2,23.4-33.4,44.4-77.1,44.6c-37.1,0.2-50.2-13.4-69.8-38.8c-16.2-20.9-41.5-34.3-69.9-34.2
		c-48.5,0.2-87.7,39.7-87.4,88.3c0.2,48.5,39.7,87.7,88.2,87.4c27.8-0.1,52.5-13.1,68.5-33.3c19.3-24.5,37.5-38.4,71.9-38.5
		c37.3-0.2,52.1,15.7,73,38c16,19.8,40.4,32.5,67.7,32.6l0.6,0h0.5h0.2h0.2h0.6h0.5c29.5-0.5,55.4-15.5,71-38.2
		c18-21.4,35.9-33.5,68-33.7c40.3-0.2,54.3,18.4,78.2,43.4c16.1,16.9,38.8,27.3,63.9,27.2C836.4,742.3,875.6,702.8,875.4,654.3z"/>
</g>
<g id="middle-dots">
	<path id="rnd2" class="st1" d="M732.9,490.2c-0.2-48.5-39.7-87.7-88.2-87.4c-22.5,0.1-43,8.7-58.5,22.7
		c-28.7,26-36.4,51.3-84.3,51.5c-37.1,0.2-50.1-13.4-69.8-38.8c-16.2-20.9-41.5-34.3-69.9-34.1c-48.5,0.2-87.7,39.7-87.5,88.2
		c0.2,48.5,39.7,87.7,88.2,87.5c27.8-0.1,52.5-13.1,68.5-33.4c19.3-24.4,37.5-38.3,71.9-38.5c40.3-0.2,54.3,18.4,78.2,43.4
		c16.1,16.9,38.8,27.3,63.9,27.2C694,578.3,733.1,538.8,732.9,490.2z"/>
</g>
<g id="orange-dot">
	<path id="rnd3" class="st2" d="M591.4,332.5c-0.2-48.5-39.7-87.7-88.2-87.5c-48.5,0.2-87.7,39.7-87.5,88.3
		c0.2,48.5,39.7,87.7,88.3,87.4C552.5,420.5,591.6,381,591.4,332.5z"/>
</g>
</svg>
