<?xml version="1.0" encoding="utf-8"?>
<!-- Generator: Adobe Illustrator 16.0.0, SVG Export Plug-In . SVG Version: 6.00 Build 0)  -->
<!DOCTYPE svg PUBLIC "-//W3C//DTD SVG 1.1//EN" "http://www.w3.org/Graphics/SVG/1.1/DTD/svg11.dtd">
<svg version="1.1" id="Layer_1" xmlns="http://www.w3.org/2000/svg" xmlns:xlink="http://www.w3.org/1999/xlink" x="0px" y="0px"
	 width="662.364px" height="72.249px" viewBox="0 0 662.364 72.249" enable-background="new 0 0 662.364 72.249"
	 xml:space="preserve">
<g>
	<path id="rnd1" fill="#1C3664" d="M106.983,59.143c-0.03-7.014-5.741-12.674-12.754-12.643c-3.253,0.015-6.216,1.256-8.455,3.278
		c-4.15,3.76-5.258,7.413-12.184,7.442c-4.969,0.022-6.953-1.666-9.472-4.828c-2.256-3.416-6.112-5.671-10.489-5.707l-0.086-0.006
		H53.46h-0.027h-0.025l-0.055,0.001l-0.099,0.007c-3.698,0.059-7.005,1.697-9.287,4.264c-3.353,3.385-4.833,6.422-11.145,6.45
		c-5.361,0.024-7.247-1.938-10.083-5.604c-2.334-3.02-5.995-4.955-10.103-4.938C5.629,46.891-0.031,52.602,0,59.613
		c0.03,7.007,5.741,12.666,12.748,12.636c4.019-0.017,7.59-1.897,9.905-4.815c2.793-3.537,5.417-5.543,10.389-5.564
		c5.389-0.023,7.523,2.275,10.543,5.484c2.312,2.854,5.836,4.69,9.783,4.717l0.08-0.002h0.071h0.025h0.027h0.086h0.075
		c4.262-0.068,8.005-2.239,10.257-5.515c2.594-3.099,5.188-4.845,9.821-4.865c5.825-0.025,7.849,2.664,11.293,6.271
		c2.323,2.435,5.607,3.944,9.237,3.929C101.354,71.859,107.014,66.148,106.983,59.143z"/>
	<path id="rnd2" fill="#8ABFD9" d="M86.396,35.435c-0.031-7.006-5.739-12.667-12.748-12.636c-3.256,0.014-6.22,1.25-8.458,3.278
		c-4.15,3.753-5.26,7.413-12.184,7.443c-5.361,0.024-7.246-1.942-10.08-5.609c-2.335-3.015-5.995-4.95-10.103-4.932
		c-7.01,0.031-12.67,5.742-12.639,12.749c0.03,7.012,5.741,12.673,12.751,12.642c4.016-0.018,7.588-1.897,9.902-4.821
		c2.793-3.531,5.42-5.537,10.389-5.559c5.821-0.025,7.845,2.657,11.294,6.265c2.326,2.441,5.607,3.95,9.24,3.936
		C80.77,48.158,86.427,42.448,86.396,35.435z"/>
	<path id="rnd3" fill="#F26724" d="M65.952,12.642C65.921,5.629,60.211-0.031,53.201,0C46.189,0.031,40.528,5.741,40.56,12.753
		c0.031,7.006,5.741,12.667,12.754,12.636C60.323,25.358,65.983,19.647,65.952,12.642z"/>
</g>
<g>
	<path fill="#1D3764" d="M160.895,29.264c3.416,3.085,5.125,7.748,5.125,13.977v25.665h-9.677v-5.331
		c-1.257,1.919-3.048,3.376-5.372,4.389c-2.324,1.008-5.123,1.517-8.401,1.517c-3.281,0-6.152-0.562-8.612-1.68
		c-2.457-1.121-4.359-2.68-5.697-4.676c-1.341-1.993-2.013-4.247-2.013-6.761c0-3.938,1.463-7.099,4.389-9.472
		c2.926-2.377,7.531-3.564,13.816-3.564h11.316v-0.656c0-3.061-0.915-5.414-2.747-7.053c-1.831-1.644-4.548-2.462-8.159-2.462
		c-2.458,0-4.876,0.385-7.252,1.148c-2.378,0.765-4.386,1.832-6.025,3.197l-4.018-7.461c2.298-1.75,5.056-3.085,8.279-4.015
		c3.224-0.929,6.643-1.395,10.249-1.395C152.542,24.634,157.478,26.178,160.895,29.264z M151.545,60.254
		c1.997-1.171,3.402-2.85,4.223-5.039v-5.081h-10.576c-5.903,0-8.854,1.939-8.854,5.818c0,1.864,0.737,3.338,2.213,4.432
		c1.477,1.095,3.525,1.642,6.15,1.642C147.268,62.021,149.551,61.437,151.545,60.254z"/>
	<path fill="#1D3764" d="M240.955,29.429c3.225,3.197,4.836,7.998,4.836,14.392v25.085h-10.249V45.138
		c0-3.825-0.849-6.713-2.542-8.654c-1.696-1.939-4.128-2.909-7.295-2.909c-3.444,0-6.204,1.132-8.282,3.402
		c-2.078,2.271-3.116,5.506-3.116,9.716v22.22h-10.245V45.138c0-3.825-0.851-6.708-2.544-8.648c-1.696-1.94-4.128-2.91-7.296-2.91
		c-3.5,0-6.273,1.116-8.322,3.359c-2.051,2.245-3.075,5.49-3.075,9.76v22.214h-10.248V25.133h9.758v5.575
		c1.639-1.967,3.69-3.468,6.147-4.508c2.46-1.035,5.193-1.557,8.2-1.557c3.281,0,6.188,0.62,8.729,1.845
		c2.544,1.229,4.554,3.05,6.025,5.453c1.804-2.294,4.129-4.085,6.97-5.372c2.839-1.284,5.984-1.926,9.427-1.926
		C233.356,24.634,237.729,26.232,240.955,29.429z"/>
	<path fill="#1D3764" d="M288.055,27.422c3.359,1.858,5.999,4.48,7.914,7.87c1.91,3.393,2.869,7.299,2.869,11.726
		s-0.958,8.35-2.869,11.769c-1.915,3.413-4.554,6.052-7.914,7.911c-3.361,1.857-7.173,2.783-11.437,2.783
		c-3.007,0-5.751-0.519-8.239-1.554c-2.487-1.04-4.578-2.602-6.271-4.677v5.656h-9.759V8.071h10.249v22.383
		c1.748-1.913,3.814-3.365,6.191-4.346c2.376-0.983,4.987-1.477,7.829-1.477C280.882,24.634,284.694,25.566,288.055,27.422z
		 M284.777,56.938c2.431-2.514,3.649-5.825,3.649-9.921c0-4.102-1.219-7.406-3.649-9.922c-2.433-2.511-5.535-3.769-9.308-3.769
		c-2.457,0-4.671,0.561-6.64,1.677c-1.967,1.121-3.527,2.72-4.673,4.796c-1.149,2.081-1.723,4.486-1.723,7.223
		c0,2.735,0.574,5.136,1.723,7.212c1.146,2.079,2.703,3.679,4.673,4.8c1.967,1.121,4.18,1.68,6.64,1.68
		C279.242,60.709,282.344,59.452,284.777,56.938z"/>
	<path fill="#1D3764" d="M349.589,50.296h-34.356c0.604,3.229,2.176,5.781,4.717,7.672c2.544,1.886,5.699,2.827,9.47,2.827
		c4.81,0,8.772-1.586,11.889-4.756l5.494,6.312c-1.967,2.352-4.457,4.125-7.461,5.332c-3.005,1.203-6.394,1.798-10.167,1.798
		c-4.812,0-9.049-0.952-12.712-2.865c-3.662-1.913-6.491-4.578-8.484-7.997c-1.999-3.413-2.994-7.282-2.994-11.601
		c0-4.264,0.971-8.1,2.91-11.518c1.939-3.416,4.63-6.082,8.076-7.994c3.442-1.913,7.322-2.872,11.641-2.872
		c4.262,0,8.072,0.943,11.435,2.829c3.365,1.891,5.987,4.541,7.873,7.954c1.886,3.415,2.828,7.365,2.828,11.851
		C349.752,47.977,349.697,48.984,349.589,50.296z M319.294,35.741c-2.271,1.943-3.649,4.525-4.143,7.75h24.842
		c-0.438-3.169-1.779-5.739-4.018-7.706c-2.246-1.967-5.03-2.951-8.362-2.951C324.335,32.834,321.561,33.802,319.294,35.741z"/>
	<path fill="#1D3764" d="M381.646,24.634v9.758c-0.878-0.162-1.669-0.244-2.379-0.244c-3.991,0-7.105,1.159-9.347,3.484
		c-2.243,2.326-3.364,5.674-3.364,10.047v21.227H356.31V25.127h9.756v6.394C369.019,26.932,374.212,24.634,381.646,24.634z"/>
	<path fill="#1D3764" d="M432.806,8.071v60.835h-9.839V63.25c-1.693,2.081-3.785,3.643-6.271,4.677
		c-2.489,1.039-5.236,1.56-8.241,1.56c-4.21,0-7.994-0.932-11.355-2.789c-3.359-1.854-5.999-4.492-7.914-7.911
		c-1.913-3.419-2.868-7.342-2.868-11.763c0-4.433,0.955-8.339,2.868-11.729c1.915-3.389,4.555-6.012,7.914-7.87
		c3.361-1.858,7.146-2.791,11.355-2.791c2.898,0,5.548,0.493,7.954,1.474c2.402,0.983,4.45,2.462,6.146,4.432V8.071H432.806z
		 M416.326,59.029c1.967-1.121,3.525-2.719,4.671-4.8c1.149-2.081,1.723-4.48,1.723-7.212c0-2.736-0.573-5.142-1.723-7.222
		c-1.146-2.074-2.704-3.67-4.671-4.796c-1.969-1.116-4.183-1.677-6.642-1.677c-2.463,0-4.676,0.561-6.646,1.677
		c-1.967,1.122-3.521,2.72-4.673,4.796c-1.146,2.081-1.72,4.486-1.72,7.222c0,2.736,0.574,5.137,1.72,7.212
		c1.152,2.081,2.706,3.679,4.673,4.8c1.971,1.117,4.184,1.68,6.646,1.68C412.144,60.709,414.357,60.146,416.326,59.029z"/>
	<path fill="#1D3764" d="M476.138,29.264c3.413,3.085,5.122,7.748,5.122,13.977v25.665h-9.67v-5.331
		c-1.261,1.919-3.052,3.376-5.373,4.389c-2.321,1.008-5.125,1.517-8.403,1.517s-6.149-0.562-8.606-1.68
		c-2.463-1.121-4.362-2.68-5.703-4.676c-1.339-1.993-2.01-4.247-2.01-6.761c0-3.938,1.461-7.099,4.389-9.472
		c2.92-2.377,7.525-3.564,13.813-3.564h11.312v-0.656c0-3.061-0.915-5.414-2.746-7.053c-1.829-1.644-4.551-2.462-8.157-2.462
		c-2.46,0-4.877,0.385-7.256,1.148c-2.378,0.765-4.388,1.832-6.023,3.197l-4.021-7.461c2.297-1.75,5.055-3.085,8.283-4.015
		c3.225-0.929,6.638-1.395,10.244-1.395C467.785,24.634,472.718,26.178,476.138,29.264z M466.792,60.254
		c1.993-1.171,3.399-2.85,4.22-5.039v-5.081h-10.573c-5.906,0-8.858,1.939-8.858,5.818c0,1.864,0.745,3.338,2.216,4.432
		c1.474,1.095,3.527,1.642,6.149,1.642C462.514,62.021,464.792,61.437,466.792,60.254z"/>
	<path fill="#1D3764" d="M520.693,66.534c-1.205,0.979-2.663,1.716-4.386,2.21c-1.723,0.493-3.541,0.736-5.45,0.736
		c-4.812,0-8.528-1.257-11.153-3.765c-2.623-2.514-3.939-6.182-3.939-10.988V33.652h-7.212v-8.197h7.212v-9.999h10.252v9.999h11.721
		v8.197h-11.721v20.826c0,2.135,0.521,3.761,1.56,4.882c1.035,1.115,2.536,1.68,4.511,1.68c2.289,0,4.204-0.601,5.735-1.804
		L520.693,66.534z"/>
	<path fill="#1D3764" d="M560.66,29.264c3.416,3.085,5.125,7.748,5.125,13.977v25.665h-9.67v-5.331
		c-1.26,1.919-3.051,3.376-5.375,4.389c-2.319,1.008-5.12,1.517-8.404,1.517c-3.278,0-6.149-0.562-8.608-1.68
		c-2.464-1.121-4.356-2.68-5.697-4.676c-1.339-1.993-2.011-4.247-2.011-6.761c0-3.938,1.464-7.099,4.389-9.472
		c2.92-2.377,7.525-3.564,13.816-3.564h11.311v-0.656c0-3.061-0.913-5.414-2.744-7.053c-1.832-1.644-4.554-2.462-8.16-2.462
		c-2.459,0-4.877,0.385-7.255,1.148c-2.376,0.765-4.389,1.832-6.024,3.197l-4.021-7.461c2.297-1.75,5.055-3.085,8.284-4.015
		c3.224-0.929,6.64-1.395,10.245-1.395C552.313,24.634,557.247,26.178,560.66,29.264z M551.314,60.254
		c1.994-1.171,3.402-2.85,4.223-5.039v-5.081h-10.573c-5.906,0-8.858,1.939-8.858,5.818c0,1.864,0.745,3.338,2.219,4.432
		c1.472,1.095,3.522,1.642,6.149,1.642C547.039,62.021,549.323,61.437,551.314,60.254z"/>
	<path fill="#1D3764" d="M577.43,67.558c-1.313-1.289-1.967-2.915-1.967-4.882c0-2.021,0.636-3.658,1.921-4.914
		c1.286-1.263,2.882-1.891,4.798-1.891c1.918,0,3.517,0.628,4.797,1.891c1.287,1.256,1.924,2.894,1.924,4.914
		c0,1.967-0.655,3.593-1.967,4.882c-1.312,1.284-2.898,1.923-4.757,1.923S578.741,68.842,577.43,67.558z"/>
	<path fill="#1D3764" d="M599.4,16.149c-1.257-1.176-1.886-2.639-1.886-4.389c0-1.75,0.629-3.208,1.886-4.383
		c1.257-1.176,2.816-1.766,4.676-1.766c1.858,0,3.413,0.563,4.673,1.68c1.257,1.121,1.886,2.53,1.886,4.22
		c0,1.804-0.612,3.321-1.843,4.554c-1.227,1.233-2.801,1.845-4.713,1.845C602.217,17.91,600.657,17.325,599.4,16.149z
		 M598.909,25.125h10.249v43.782h-10.249V25.125z"/>
	<path fill="#1D3764" d="M627.026,66.609c-3.554-1.907-6.322-4.572-8.321-7.991c-1.993-3.413-2.991-7.282-2.991-11.601
		c0-4.323,0.998-8.17,2.991-11.563c1.999-3.387,4.768-6.042,8.321-7.954c3.555-1.91,7.543-2.869,11.975-2.869
		c4.479,0,8.493,0.959,12.051,2.869c3.556,1.913,6.319,4.567,8.321,7.954c1.994,3.393,2.991,7.24,2.991,11.563
		c0,4.318-0.997,8.182-2.991,11.601c-2.002,3.413-4.768,6.08-8.321,7.991c-3.555,1.919-7.572,2.871-12.051,2.871
		C634.569,69.48,630.584,68.528,627.026,66.609z M648.347,56.938c2.464-2.514,3.69-5.825,3.69-9.921c0-4.102-1.227-7.406-3.69-9.922
		c-2.459-2.511-5.574-3.769-9.343-3.769c-3.771,0-6.879,1.257-9.309,3.769c-2.43,2.516-3.646,5.82-3.646,9.922
		s1.216,7.407,3.646,9.921c2.433,2.514,5.538,3.771,9.309,3.771C642.772,60.709,645.888,59.452,648.347,56.938z"/>
</g>
</svg>
